# xmcd CD database generated by RipIT
#
# Track frame offsets:
# 150
# 14368
# 31191
# 50197
# 67457
# 84703
# 98514
# 118968
# 133267
# 149841
# 166038
# 184055
# 200346
# 214947
# 228899
# 241266
# 257883
# 278864
#
# Disc length: 3923 seconds
#
# Revision: 0
# Processed by: cddbd v1.5.2PL0 Copyright (c) Steve Scherf et al.
# Submitted via: RipIT 3.8.0 www.suwald.com/ripit/ripit.html on 2013-02-10 at 11:02
#
DISCID=150f5112
DTITLE=Aaron Neville - Mojo Soul
DYEAR=2006
DGENRE=r&b
TTITLE0=Tell It Like It is
TTITLE1=Struttin On Sunday
TTITLE2=Hercules
TTITLE3=Make Me Strong
TTITLE4=You Can Give But You Can't Take
TTITLE5=Waiting For A Bus
TTITLE6=Mojo Hannah
TTITLE7=Love Letters
TTITLE8=Cry Me A River
TTITLE9=The Greatest Love
TTITLE10=Where Is My Baby
TTITLE11=My Greatest Gift
TTITLE12=Baby I'm A want You
TTITLE13=Performance
TTITLE14=She's On My Mind
TTITLE15=Been So Wrong
TTITLE16=Wildflower
TTITLE17=One Fine Day
EXTD=
EXTT0=
EXTT1=
EXTT2=
EXTT3=
EXTT4=
EXTT5=
EXTT6=
EXTT7=
EXTT8=
EXTT9=
EXTT10=
EXTT11=
EXTT12=
EXTT13=
EXTT14=
EXTT15=
EXTT16=
EXTT17=
PLAYORDER=
